<svg width="36" height="28" viewBox="0 0 36 28" fill="none" xmlns="http://www.w3.org/2000/svg">
<g id="grim-logo-imweb-symbol">
<path id="Vector" d="M6.98528 12.593C5.35102 13.3852 4.26837 14.5397 3.40722 16.1388C1.40913 19.8518 2.85416 23.8583 6.9105 23.8583C10.9668 23.8583 13.1967 21.2 13.9258 20.443C14.2295 20.1129 14.5214 19.7697 14.8016 19.419C14.916 19.2753 15.1376 19.4219 15.051 19.5848C14.9571 19.7623 14.8573 19.9384 14.7532 20.11C14.118 21.1486 14.3248 22.513 15.2946 23.2494C15.7346 23.5839 16.3376 23.8069 17.1621 23.8069C19.7484 23.8069 21.8786 21.7883 22.7734 20.7907C22.8805 20.669 22.9847 20.5472 23.0888 20.4224C23.1798 20.311 23.5172 19.8914 23.6551 19.7066C23.7651 19.5599 23.9911 19.7007 23.9089 19.865C23.8517 19.9809 23.7915 20.0968 23.7299 20.2097C23.3691 20.8699 23.35 21.668 23.6727 22.3487C24.0659 23.179 24.7906 23.8597 26.0992 23.8597C27.1129 23.8597 28.7486 23.3521 30.2714 21.9452C33.3727 19.0772 33.6382 16.6772 33.4299 16.0537C32.9003 14.4678 30.9536 15.3965 29.0978 16.7637C28.9746 16.8546 28.8102 16.7241 28.8719 16.5833C29.4073 15.3642 30.5208 12.4023 29.469 10.853C28.2279 9.02806 25.6972 10.1445 23.193 12.0355C23.0771 12.1235 22.9172 12.0091 22.9627 11.8712C23.3573 10.6623 24.2214 7.43929 22.7896 6.00748C19.5181 2.736 12.5747 11.5763 10.5957 14.261C10.5003 14.3915 10.2949 14.2976 10.3301 14.1392C10.4519 13.5876 10.4357 13.1842 10.3668 12.9759C9.98831 11.8463 8.28069 11.9665 6.98824 12.5945L6.98528 12.593Z" fill="#15181E"/>
<path id="Vector_2" d="M12.2684 9.87411C13.5491 8.54843 13.8149 6.72759 12.8621 5.8072C11.9094 4.88682 10.0989 5.2154 8.81815 6.54107C7.53751 7.86681 7.2717 9.68759 8.22448 10.608C9.17719 11.5284 10.9878 11.1998 12.2684 9.87411Z" fill="#15181E"/>
</g>
</svg>
