<svg width="114" height="24" viewBox="0 0 114 24" fill="none" xmlns="http://www.w3.org/2000/svg">
  <path fill-rule="evenodd" clip-rule="evenodd" d="M79.3556 6.64517C80.8194 5.12839 81.1232 3.04512 80.0342 1.99207C78.9453 0.93902 76.8759 1.31495 75.4122 2.83174C73.9484 4.34852 73.6446 6.43179 74.7336 7.48484C75.8225 8.53789 77.8919 8.16196 79.3556 6.64517ZM73.3192 9.75396C71.4513 10.6603 70.2139 11.9813 69.2296 13.8109C66.9459 18.0591 68.5975 22.6431 73.2337 22.6431C77.5824 22.6431 80.0944 19.9672 81.077 18.9206C81.142 18.8514 81.2002 18.7893 81.2519 18.7356C81.599 18.3579 81.9327 17.9651 82.253 17.564C82.3837 17.3995 82.6369 17.5673 82.538 17.7537C82.4307 17.9567 82.3167 18.1582 82.1976 18.3546C81.4716 19.5429 81.708 21.1039 82.8163 21.9465C83.3194 22.3292 84.0085 22.5844 84.9508 22.5844C87.907 22.5844 90.3416 20.2747 91.3644 19.1334C91.4868 18.9941 91.6059 18.8547 91.7249 18.7121C91.8289 18.5845 92.2145 18.1045 92.3721 17.893C92.4979 17.7251 92.7561 17.8863 92.6622 18.0742C92.5968 18.2068 92.5281 18.3394 92.4577 18.4687C92.0452 19.224 92.0234 20.1371 92.3923 20.9159C92.8416 21.866 93.67 22.6448 95.1656 22.6448C96.3243 22.6448 98.1938 22.064 99.9343 20.4543C103.479 17.1729 103.782 14.4269 103.544 13.7135C102.939 11.8991 100.714 12.9616 98.5929 14.5259C98.4521 14.63 98.2643 14.4806 98.3347 14.3195C98.9467 12.9246 100.219 9.53576 99.0171 7.76327C97.5986 5.67523 94.7062 6.95256 91.844 9.11613C91.7115 9.21684 91.5287 9.08592 91.5807 8.92814C92.0318 7.54507 93.0194 3.85742 91.3829 2.21921C87.6437 -1.52382 79.7076 8.59077 77.4457 11.6624C77.3367 11.8118 77.102 11.7044 77.1422 11.5231C77.2814 10.892 77.2629 10.4304 77.1841 10.192C76.7515 8.89961 74.7998 9.03725 73.3226 9.75564L73.3192 9.75396ZM3.89677 5.71381C3.89677 6.7914 3.02486 7.66421 1.94839 7.66421C0.871911 7.66421 0 6.7914 0 5.71381C0 4.63621 0.871911 3.7634 1.94839 3.7634C3.02486 3.7634 3.89677 4.63621 3.89677 5.71381ZM53.3307 3.79358V19.944H56.6054V18.6952C57.1185 19.5446 58.2553 20.1908 59.7258 20.1908C62.8228 20.1908 65.0076 17.6915 65.0076 14.3681C65.0076 11.0447 63.0693 8.59071 59.86 8.59071C58.3442 8.59071 57.1185 9.21511 56.6507 9.90665V3.79358H53.3307ZM56.6071 14.3899C56.6071 12.515 57.811 11.6456 59.1255 11.6456C60.4418 11.6456 61.6222 12.5385 61.6222 14.3899C61.6222 16.2413 60.4401 17.1561 59.1255 17.1561C57.811 17.1561 56.6071 16.2648 56.6071 14.3899ZM51.9257 16.7549C51.3908 18.6735 49.6302 20.2798 46.8216 20.2798C43.7683 20.2798 41.0502 18.0927 41.0502 14.3681C41.0502 10.6435 43.7029 8.52361 46.5768 8.52361C50.0091 8.52361 52.1252 10.6435 52.1252 14.212C52.1252 14.6803 52.0799 15.1939 52.0581 15.2611H44.3467C44.4138 16.5099 45.5506 17.4028 46.8652 17.4028C48.0909 17.4028 48.7817 16.8221 49.0936 15.9526L51.924 16.7549H51.9257ZM48.8505 13.074C48.8052 12.2264 48.2267 11.2008 46.6221 11.2008C45.1952 11.2008 44.4826 12.2499 44.4155 13.074H48.8505ZM33.9464 8.85761L36.1078 15.439L37.9589 8.85761H41.2789L37.8465 19.944H34.4813L32.0752 12.7836L29.7126 19.944H26.2803L22.8044 8.85761H26.3256L28.175 15.4155L30.3582 8.85761H33.9464ZM5.25319 19.8316V8.7435H8.48429V10.0158C9.04097 9.03388 10.4679 8.40948 11.6718 8.40948C13.2547 8.40948 14.3915 9.0557 14.9482 10.1501C15.8167 8.90128 16.8865 8.40948 18.3805 8.40948C20.4747 8.40948 22.4818 9.63646 22.4818 12.6477V19.8316H19.2054V13.4063C19.2054 12.3573 18.6488 11.5332 17.4449 11.5332C16.2409 11.5332 15.5954 12.4479 15.5954 13.4298V19.8333H12.252V13.408C12.252 12.359 11.6953 11.5348 10.4696 11.5348C9.24386 11.5348 8.64191 12.4496 8.64191 13.4533V19.8333H5.25486L5.25319 19.8316ZM0.174332 8.74345H3.56137V19.8316H0.174332V8.74345Z" fill="#15181E"/>
</svg>
